<svg width="1440" height="1024" viewBox="0 0 1440 1024" fill="none" xmlns="http://www.w3.org/2000/svg">
<g clip-path="url(#clip0_26_45)">
<rect width="1440" height="1024" fill="#1E1E1E"/>
<path d="M353.6 693.076C360.551 692.025 366.388 698.284 364.855 705.145L253.813 1201.96C252.059 1209.81 242.227 1212.48 236.741 1206.6L-155.567 785.931C-161.053 780.049 -157.702 770.426 -149.75 769.223L353.6 693.076Z" fill="#412BE3" fill-opacity="0.87"/>
<path d="M282.356 736.218C289.307 735.167 295.144 741.426 293.611 748.287L221.366 1071.52C219.611 1079.37 209.779 1082.04 204.293 1076.16L-50.9463 802.468C-56.4319 796.586 -53.0814 786.963 -45.1287 785.76L282.356 736.218Z" fill="#3D144C" fill-opacity="0.4"/>
<path fill-rule="evenodd" clip-rule="evenodd" d="M550.931 731.375C548.578 729.398 545.447 728.612 542.44 729.244L389.323 761.444C385.579 762.232 382.612 765.086 381.681 768.797L349.027 898.969C348.096 902.68 349.364 906.597 352.293 909.058L472.082 1009.72C474.435 1011.7 477.566 1012.48 480.573 1011.85L633.69 979.648C637.434 978.861 640.401 976.006 641.332 972.295L673.986 842.123C674.917 838.412 673.649 834.496 670.72 832.034L550.931 731.375ZM511.5 947C553.198 947 587 913.197 587 871.5C587 829.802 553.198 796 511.5 796C469.803 796 436 829.802 436 871.5C436 913.197 469.803 947 511.5 947Z" fill="#5E49FF"/>
</g>
<rect x="0.5" y="0.5" width="1439" height="1023" stroke="white" stroke-opacity="0.46"/>
<defs>
<clipPath id="clip0_26_45">
<rect width="1440" height="1024" fill="white"/>
</clipPath>
</defs>
</svg>
